<?xml version="1.0" encoding="iso-8859-1"?>
<!-- Generator: Adobe Illustrator 19.0.0, SVG Export Plug-In . SVG Version: 6.00 Build 0)  -->
<svg version="1.1" id="Layer_1" xmlns="http://www.w3.org/2000/svg" xmlns:xlink="http://www.w3.org/1999/xlink" x="0px" y="0px"
	 viewBox="0 0 508.609 508.609" style="enable-background:new 0 0 508.609 508.609;" xml:space="preserve">
<path style="fill:#DEDEDF;" d="M430.113,339.751L321.27,326.527H187.675l0,0L78.833,339.751
	c-40.689,5.086-71.544,39.672-71.544,80.699v88.159h494.029V420.45C501.657,379.423,470.801,344.498,430.113,339.751z"/>
<path style="fill:#608287;" d="M394.849,153.6C394.849,68.832,331.781,0,254.473,0S114.097,68.832,114.097,153.6
	c0,47.809,20.005,90.532,51.2,118.676c8.477,9.833,24.413,33.907-4.408,58.999l93.584,146.14l93.584-146.14
	c-28.821-25.091-12.885-49.166-4.408-58.999C374.844,244.132,394.849,201.409,394.849,153.6z"/>
<path style="fill:#FACCB4;" d="M254.473,293.637c51.539,0,93.584-42.045,93.584-93.584v-59.338
	c-26.109-19.666-58.66-31.195-93.584-31.195c-35.264,0-67.476,11.528-93.584,31.195v59.338
	C160.889,251.931,202.934,293.637,254.473,293.637z"/>
<g>
</g>
<g>
</g>
<g>
</g>
<g>
</g>
<g>
</g>
<g>
</g>
<g>
</g>
<g>
</g>
<g>
</g>
<g>
</g>
<g>
</g>
<g>
</g>
<g>
</g>
<g>
</g>
<g>
</g>
</svg>
